<?xml version="1.0" encoding="UTF-8"?>
<svg xmlns="http://www.w3.org/2000/svg" xmlns:xlink="http://www.w3.org/1999/xlink" width="32px" height="32px" viewBox="0 0 32 32" version="1.1">
<g id="surface1">
<path style=" stroke:none;fill-rule:nonzero;fill:rgb(0%,0.392157%,0.392157%);fill-opacity:1;" d="M 24.46875 6.378906 C 24.519531 6.425781 24.570312 6.472656 24.621094 6.523438 C 24.757812 6.648438 24.894531 6.765625 25.035156 6.882812 C 25.292969 7.109375 25.511719 7.351562 25.726562 7.617188 C 25.78125 7.679688 25.832031 7.742188 25.886719 7.808594 C 27.777344 10.132812 28.816406 12.941406 28.8125 15.941406 C 28.8125 15.984375 28.8125 16.027344 28.8125 16.074219 C 28.808594 17.167969 28.671875 18.199219 28.414062 19.265625 C 28.40625 19.308594 28.394531 19.355469 28.382812 19.398438 C 27.902344 21.34375 26.851562 23.089844 25.535156 24.574219 C 25.484375 24.632812 25.433594 24.695312 25.382812 24.753906 C 25.089844 25.085938 24.789062 25.382812 24.449219 25.664062 C 24.417969 25.691406 24.382812 25.71875 24.351562 25.746094 C 23.132812 26.773438 21.777344 27.542969 20.289062 28.097656 C 20.210938 28.125 20.136719 28.152344 20.058594 28.183594 C 16.894531 29.296875 13.347656 28.953125 10.351562 27.527344 C 9.257812 26.992188 8.269531 26.300781 7.378906 25.476562 C 7.242188 25.351562 7.105469 25.234375 6.964844 25.117188 C 4.78125 23.203125 3.464844 20.070312 3.214844 17.230469 C 2.992188 13.808594 3.890625 10.394531 6.164062 7.765625 C 6.261719 7.65625 6.359375 7.550781 6.457031 7.441406 C 6.578125 7.308594 6.695312 7.175781 6.8125 7.035156 C 7.828125 5.875 9.234375 4.992188 10.625 4.351562 C 10.699219 4.316406 10.769531 4.285156 10.847656 4.25 C 11.800781 3.824219 12.792969 3.511719 13.824219 3.328125 C 13.867188 3.320312 13.910156 3.3125 13.953125 3.304688 C 17.691406 2.679688 21.65625 3.855469 24.46875 6.378906 Z M 24.46875 6.378906 "/>
<path style=" stroke:none;fill-rule:nonzero;fill:rgb(15.294118%,98.823529%,74.117647%);fill-opacity:1;" d="M 18.421875 8.507812 C 18.945312 8.910156 19.347656 9.359375 19.667969 9.941406 C 19.699219 9.996094 19.699219 9.996094 19.730469 10.050781 C 20.078125 10.714844 20.125 11.40625 20.121094 12.140625 C 20.121094 12.230469 20.121094 12.324219 20.125 12.414062 C 20.125 12.664062 20.125 12.910156 20.125 13.15625 C 20.125 13.363281 20.125 13.570312 20.125 13.777344 C 20.125 14.269531 20.125 14.757812 20.125 15.25 C 20.125 15.75 20.125 16.253906 20.125 16.757812 C 20.128906 17.191406 20.128906 17.625 20.128906 18.058594 C 20.128906 18.316406 20.128906 18.574219 20.128906 18.832031 C 20.128906 19.074219 20.128906 19.320312 20.128906 19.5625 C 20.128906 19.691406 20.128906 19.820312 20.128906 19.953125 C 20.121094 21.175781 19.734375 22.25 18.867188 23.125 C 17.890625 24.050781 16.832031 24.230469 15.535156 24.214844 C 15.039062 24.199219 14.652344 24.105469 14.207031 23.871094 C 14.152344 23.84375 14.09375 23.816406 14.035156 23.785156 C 13.074219 23.257812 12.355469 22.371094 12.042969 21.320312 C 11.90625 20.78125 11.875 20.277344 11.878906 19.722656 C 11.878906 19.632812 11.878906 19.539062 11.875 19.449219 C 11.875 19.199219 11.875 18.953125 11.875 18.707031 C 11.875 18.5 11.875 18.292969 11.875 18.085938 C 11.875 17.59375 11.875 17.105469 11.875 16.613281 C 11.875 16.113281 11.875 15.609375 11.875 15.105469 C 11.871094 14.671875 11.871094 14.238281 11.871094 13.804688 C 11.871094 13.546875 11.871094 13.289062 11.871094 13.03125 C 11.871094 12.789062 11.871094 12.542969 11.871094 12.300781 C 11.871094 12.171875 11.871094 12.042969 11.871094 11.910156 C 11.878906 10.730469 12.269531 9.777344 13.085938 8.917969 C 14.570312 7.539062 16.734375 7.363281 18.421875 8.507812 Z M 18.421875 8.507812 "/>
<path style=" stroke:none;fill-rule:nonzero;fill:rgb(95.294118%,32.156863%,32.156863%);fill-opacity:1;" d="M 19.390625 9.472656 C 20.304688 9.425781 21.15625 9.722656 21.84375 10.328125 C 21.945312 10.425781 22.046875 10.523438 22.144531 10.625 C 22.183594 10.664062 22.226562 10.703125 22.265625 10.742188 C 22.902344 11.390625 23.167969 12.296875 23.167969 13.183594 C 22.851562 13.183594 22.535156 13.183594 22.207031 13.183594 C 22.207031 13.332031 22.207031 13.480469 22.207031 13.632812 C 21.96875 14.414062 21.425781 15.058594 20.707031 15.445312 C 20.488281 15.542969 20.335938 15.617188 20.097656 15.617188 C 20.09375 15.5625 20.09375 15.507812 20.09375 15.453125 C 20.089844 14.945312 20.085938 14.4375 20.082031 13.929688 C 20.078125 13.667969 20.074219 13.40625 20.074219 13.144531 C 20.070312 12.890625 20.070312 12.640625 20.066406 12.386719 C 20.066406 12.289062 20.066406 12.195312 20.0625 12.097656 C 20.0625 11.339844 19.996094 10.640625 19.605469 9.976562 C 19.390625 9.609375 19.390625 9.609375 19.390625 9.472656 Z M 19.390625 9.472656 "/>
<path style=" stroke:none;fill-rule:nonzero;fill:rgb(94.901961%,32.54902%,32.54902%);fill-opacity:1;" d="M 11.839844 17.023438 C 11.859375 17.023438 11.882812 17.023438 11.902344 17.023438 C 11.902344 17.066406 11.90625 17.109375 11.90625 17.15625 C 11.90625 17.613281 11.910156 18.070312 11.917969 18.527344 C 11.917969 18.695312 11.921875 18.867188 11.921875 19.035156 C 11.929688 20.761719 12.117188 22.035156 13.375 23.296875 C 13.414062 23.335938 13.453125 23.375 13.492188 23.414062 C 13.53125 23.449219 13.53125 23.449219 13.566406 23.488281 C 13.128906 23.746094 12.660156 23.734375 12.160156 23.679688 C 11.558594 23.511719 11.132812 23.257812 10.800781 22.726562 C 10.496094 22.183594 10.402344 21.65625 10.542969 21.042969 C 10.609375 20.816406 10.683594 20.59375 10.757812 20.367188 C 10.785156 20.285156 10.8125 20.203125 10.839844 20.121094 C 10.910156 19.90625 10.980469 19.691406 11.050781 19.476562 C 11.125 19.257812 11.195312 19.039062 11.269531 18.820312 C 11.347656 18.574219 11.429688 18.328125 11.511719 18.082031 C 11.628906 17.730469 11.742188 17.378906 11.839844 17.023438 Z M 11.839844 17.023438 "/>
</g>
</svg>
